v 0.5 0.5 1.26193e-17
vn 0 1 0
v 0.475528 0.5 -0.154508
vn 0 1 0
v 0.404508 0.5 -0.293893
vn 0 1 0
v 0.293893 0.5 -0.404508
vn 0 1 0
v 0.154508 0.5 -0.475528
vn 0 1 0
v -5.93851e-18 0.5 -0.5
vn 0 1 0
v -0.154508 0.5 -0.475528
vn 0 1 0
v -0.293893 0.5 -0.404508
vn 0 1 0
v -0.404508 0.5 -0.293893
vn 0 1 0
v -0.475528 0.5 -0.154508
vn 0 1 0
v -0.5 0.5 1.26193e-17
vn 0 1 0
v -0.475528 0.5 0.154508
vn 0 1 0
v -0.404508 0.5 0.293893
vn 0 1 0
v -0.293893 0.5 0.404508
vn 0 1 0
v -0.154508 0.5 0.475528
vn 0 1 0
v -5.93851e-18 0.5 0.5
vn 0 1 0
v 0.154508 0.5 0.475528
vn 0 1 0
v 0.293893 0.5 0.404508
vn 0 1 0
v 0.404508 0.5 0.293893
vn 0 1 0
v 0.475528 0.5 0.154508
vn 0 1 0
v 0.493844 -0.5 -0.078217
vn 0 -1 0
v 0.445503 -0.5 -0.226995
vn 0 -1 0
v 0.353553 -0.5 -0.353553
vn 0 -1 0
v 0.226995 -0.5 -0.445503
vn 0 -1 0
v 0.078217 -0.5 -0.493844
vn 0 -1 0
v -0.078217 -0.5 -0.493844
vn 0 -1 0
v -0.226995 -0.5 -0.445503
vn 0 -1 0
v -0.353553 -0.5 -0.353553
vn 0 -1 0
v -0.445503 -0.5 -0.226995
vn 0 -1 0
v -0.493844 -0.5 -0.078217
vn 0 -1 0
v -0.493844 -0.5 0.078217
vn 0 -1 0
v -0.445503 -0.5 0.226995
vn 0 -1 0
v -0.353553 -0.5 0.353553
vn 0 -1 0
v -0.226995 -0.5 0.445503
vn 0 -1 0
v -0.078217 -0.5 0.493844
vn 0 -1 0
v 0.078217 -0.5 0.493844
vn 0 -1 0
v 0.226995 -0.5 0.445503
vn 0 -1 0
v 0.353553 -0.5 0.353553
vn 0 -1 0
v 0.445503 -0.5 0.226995
vn 0 -1 0
v 0.493844 -0.5 0.078217
vn 0 -1 0
v 0.5 0.5 1.26193e-17
vn 1 0 0
v 0.475528 0.5 -0.154508
vn 0.951056 0 -0.309017
v 0.404508 0.5 -0.293893
vn 0.809017 0 -0.587785
v 0.293893 0.5 -0.404508
vn 0.587785 0 -0.809017
v 0.154508 0.5 -0.475528
vn 0.309017 0 -0.951056
v -5.93851e-18 0.5 -0.5
vn 0 0 -1
v -0.154508 0.5 -0.475528
vn -0.309017 0 -0.951056
v -0.293893 0.5 -0.404508
vn -0.587785 0 -0.809017
v -0.404508 0.5 -0.293893
vn -0.809017 0 -0.587785
v -0.475528 0.5 -0.154508
vn -0.951056 0 -0.309017
v -0.5 0.5 1.26193e-17
vn -1 0 0
v -0.475528 0.5 0.154508
vn -0.951056 0 0.309017
v -0.404508 0.5 0.293893
vn -0.809017 0 0.587785
v -0.293893 0.5 0.404508
vn -0.587785 0 0.809017
v -0.154508 0.5 0.475528
vn -0.309017 0 0.951056
v -5.93851e-18 0.5 0.5
vn 0 0 1
v 0.154508 0.5 0.475528
vn 0.309017 0 0.951056
v 0.293893 0.5 0.404508
vn 0.587785 0 0.809017
v 0.404508 0.5 0.293893
vn 0.809017 0 0.587785
v 0.475528 0.5 0.154508
vn 0.951056 0 0.309017
v 0.493844 -0.5 -0.078217
vn 0.987688 0 -0.156434
v 0.445503 -0.5 -0.226995
vn 0.891006 0 -0.45399
v 0.353553 -0.5 -0.353553
vn 0.707107 0 -0.707107
v 0.226995 -0.5 -0.445503
vn 0.45399 0 -0.891006
v 0.078217 -0.5 -0.493844
vn 0.156434 0 -0.987688
v -0.078217 -0.5 -0.493844
vn -0.156434 0 -0.987688
v -0.226995 -0.5 -0.445503
vn -0.45399 0 -0.891006
v -0.353553 -0.5 -0.353553
vn -0.707107 0 -0.707107
v -0.445503 -0.5 -0.226995
vn -0.891006 0 -0.45399
v -0.493844 -0.5 -0.078217
vn -0.987688 0 -0.156434
v -0.493844 -0.5 0.078217
vn -0.987688 0 0.156434
v -0.445503 -0.5 0.226995
vn -0.891006 0 0.45399
v -0.353553 -0.5 0.353553
vn -0.707107 0 0.707107
v -0.226995 -0.5 0.445503
vn -0.45399 0 0.891006
v -0.078217 -0.5 0.493844
vn -0.156434 0 0.987688
v 0.078217 -0.5 0.493844
vn 0.156434 0 0.987688
v 0.226995 -0.5 0.445503
vn 0.45399 0 0.891006
v 0.353553 -0.5 0.353553
vn 0.707107 0 0.707107
v 0.445503 -0.5 0.226995
vn 0.891006 0 0.45399
v 0.493844 -0.5 0.078217
vn 0.987688 0 0.156434
f 1//1 2//2 3//3 4//4 5//5 6//6 7//7 8//8 9//9 10//10 11//11 12//12 13//13 14//14 15//15 16//16 17//17 18//18 19//19 20//20
f 40//40 39//39 38//38 37//37 36//36 35//35 34//34 33//33 32//32 31//31 30//30 29//29 28//28 27//27 26//26 25//25 24//24 23//23 22//22 21//21
f 61//61 42//42 41//41
f 62//62 43//43 42//42
f 63//63 44//44 43//43
f 64//64 45//45 44//44
f 65//65 46//46 45//45
f 66//66 47//47 46//46
f 67//67 48//48 47//47
f 68//68 49//49 48//48
f 69//69 50//50 49//49
f 70//70 51//51 50//50
f 71//71 52//52 51//51
f 72//72 53//53 52//52
f 73//73 54//54 53//53
f 74//74 55//55 54//54
f 75//75 56//56 55//55
f 76//76 57//57 56//56
f 77//77 58//58 57//57
f 78//78 59//59 58//58
f 79//79 60//60 59//59
f 80//80 41//41 60//60
f 41//41 80//80 61//61
f 42//42 61//61 62//62
f 43//43 62//62 63//63
f 44//44 63//63 64//64
f 45//45 64//64 65//65
f 46//46 65//65 66//66
f 47//47 66//66 67//67
f 48//48 67//67 68//68
f 49//49 68//68 69//69
f 50//50 69//69 70//70
f 51//51 70//70 71//71
f 52//52 71//71 72//72
f 53//53 72//72 73//73
f 54//54 73//73 74//74
f 55//55 74//74 75//75
f 56//56 75//75 76//76
f 57//57 76//76 77//77
f 58//58 77//77 78//78
f 59//59 78//78 79//79
f 60//60 79//79 80//80
